<svg xmlns="http://www.w3.org/2000/svg" width="545" height="586.609" viewBox="0 0 545 586.609">
  <g id="toilet" transform="translate(-15.2 -6.08)">
    <path id="Trazado_238" data-name="Trazado 238" d="M540.231,43.023a94.566,94.566,0,0,0-75.3-36.943H449.8L381.365,270.054H15.2v39.107c0,56.806,22.751,107.7,64.059,143.3C118.345,486.146,171.981,504.7,230.29,504.7h46.591L267.1,592.689H513.817V292.1L557.093,125.18a94.565,94.565,0,0,0-16.863-82.157ZM474.71,553.582H310.8l9.777-87.991H230.29c-103.616,0-175.983-64.326-175.983-156.429h420.4Zm44.527-438.216-40.1,154.689H421.765L479.57,47.1a56.158,56.158,0,0,1,39.669,68.267Z" transform="translate(0 0)" fill="#faf7f7"/>
  </g>
</svg>
