<svg id="shower" xmlns="http://www.w3.org/2000/svg" width="545" height="432.424" viewBox="0 0 545 432.424">
  <path id="Trazado_239" data-name="Trazado 239" d="M106.9,111.654l24.964,24.964L106.951,186.44l-24.51-25.872L106.9,111.654Z" transform="translate(176.102 156.319)" fill="#faf7f7"/>
  <path id="Trazado_240" data-name="Trazado 240" d="M145.122,166.857l-23.34,46.682L97.272,187.666l23.341-46.681,24.51,25.872Z" transform="translate(116.919 218.886)" fill="#faf7f7"/>
  <path id="Trazado_241" data-name="Trazado 241" d="M204.5,77l24.205,25.551-46.5,22.238L158,99.233Z" transform="translate(-158.004 80.454)" fill="#faf7f7"/>
  <path id="Trazado_242" data-name="Trazado 242" d="M199.257,88.967,154.4,110.422l-24.206-25.55,43.952-21.021,25.116,25.116Z" transform="translate(-41.54 52.631)" fill="#faf7f7"/>
  <path id="Trazado_243" data-name="Trazado 243" d="M170.18,145.308l-29.854,39.806-23.367-24.665,29.854-39.806Z" transform="translate(30.3 174.42)" fill="#faf7f7"/>
  <path id="Trazado_244" data-name="Trazado 244" d="M98.359,136.5l30.287-40.383,23.924,23.924-30.843,41.124Z" transform="translate(105.627 122.184)" fill="#faf7f7"/>
  <path id="Trazado_245" data-name="Trazado 245" d="M175.793,104.054l-38.4,30.717-23.116-24.4,37.681-30.145Z" transform="translate(32.261 87.667)" fill="#faf7f7"/>
  <path id="Trazado_246" data-name="Trazado 246" d="M199.3,123.192,160.866,153.94l-23.116-24.4,38.435-30.747,23.116,24.4Z" transform="translate(-72.812 127.082)" fill="#faf7f7"/>
  <path id="Trazado_247" data-name="Trazado 247" d="M27.013,63.12l27.465,30.9L80.35,64.911c45.62-51.325,119.586-51.325,165.206,0,.358.4.7.811,1.056,1.218C271.526,46.382,304.144,43.9,331.2,59.686s44.032,47.22,44.031,81.507V425H341.735V141.193c0-20.113-9.91-38.568-25.734-47.924S281.048,85.2,266.324,96.6c23.782,50.974,15.37,113.42-20.768,154.177l-25.871,29.106,25.036,28.168L223.788,331.6,6.08,86.671Zm171.321,187.5,23.539-26.482c32.543-36.609,32.544-95.966,0-132.577s-85.3-36.612-117.842,0L80.5,118.039Z" transform="translate(169.772 -26.417)" fill="#faf7f7"/>
</svg>
